<?xml version="1.0" encoding="UTF-8"?>
<!-- My Brand New Logo (1.0.181), id: EENm88xglJcGVAqPZ2XR (1.2.2), date: 2023-11-12 17:29 -->
<svg version="1.1" preserveAspectRatio="xMidYMid meet" xmlns="http://www.w3.org/2000/svg" xmlns:xlink="http://www.w3.org/1999/xlink" viewBox="29.137 409.819 941.725 180.362" width="1000" height="192">
	<defs>
		<g id="def-1" transform="matrix(2.807, 0, 0, 2.807, 30.906, 411.587)" fill="#fff" stroke="none" stroke-width="1">
			<g transform="translate(-18.5, -18.5)">
				<g></g>
				<g>
					<path d=" m81 27 c0 -2.121 -0.844 -4.156 -2.344 -5.656 s-3.535 -2.344 -5.656 -2.344 h-11 v8 h11 v11 h8 z"></path>
					<path d=" m81 73 v-11 h-8 v11 h-11 v8 h11 c2.121 0 4.156 -0.844 5.656 -2.344 s2.344 -3.535 2.344 -5.656 z"></path>
					<path d=" m27 81 h11 v-8 h-11 v-11 h-8 v11 c0 2.121 0.844 4.156 2.344 5.656 s3.535 2.344 5.656 2.344 z"></path>
					<path d=" m27 27 h11 v-8 h-11 c-4.418 0 -8 3.582 -8 8 v11 h8 z"></path>
					<path d=" m34 38 h32 v8 h-32 z"></path>
					<path d=" m34 54 h22 v8 h-22 z"></path>
				</g>
			</g>
		</g>
		<path id="def-2" d="M291.148,439.423 L259.128,439.423 L259.128,560.577 L276.609,560.577 L276.609,518 L291.148,518 C314.859,518,328.359,503.981,328.359,478.538 C328.359,453.788,314.859,439.423,291.148,439.423 Z M290.974,501.385 L276.609,501.385 L276.609,456.038 L290.974,456.038 C304.128,456.038,310.532,463.654,310.532,478.538 C310.532,494.115,304.128,501.385,290.974,501.385 Z M364.186,543.962 L364.186,439.423 L346.706,439.423 L346.706,560.577 L404.341,560.577 L404.341,543.962 Z M471.841,560.577 L490.014,560.577 L459.553,439.423 L440.687,439.423 L410.225,560.577 L428.572,560.577 L434.11,536.173 L466.129,536.173 Z M437.918,519.904 L445.36,487.365 C447.264,479.404,448.995,467.808,449.86,461.404 L450.379,461.404 C451.245,467.808,453.149,479.404,454.879,487.365 L462.495,519.904 Z M519.784,560.577 L537.265,560.577 L537.265,520.769 L566.688,439.423 L548.342,439.423 L534.841,479.404 L528.611,498.788 L528.265,498.788 C526.534,492.731,523.938,484.942,522.207,479.75 L508.534,439.423 L490.36,439.423 L519.784,520.769 Z M598.88,560.577 L617.573,560.577 L629.342,507.096 C631.938,495.673,634.361,478.019,635.227,468.154 L635.919,468.154 C636.611,478.019,639.034,495.673,641.631,507.096 L653.4,560.577 L672.092,560.577 L699.266,439.423 L681.092,439.423 L668.631,505.712 C667.073,514.539,664.131,530.289,663.092,537.904 L662.4,537.904 C661.362,530.289,658.765,515.404,656.861,504.846 L644.746,441.327 L626.227,441.327 L614.111,504.846 C612.207,515.404,609.611,530.289,608.573,537.904 L607.88,537.904 C606.842,530.289,603.9,514.539,602.342,505.712 L589.88,439.423 L571.707,439.423 Z M749.631,562.827 C772.824,562.827,786.67,547.423,786.67,522.154 L786.67,477.846 C786.67,452.577,772.824,437.173,749.631,437.173 C726.439,437.173,712.593,452.577,712.593,477.846 L712.593,522.154 C712.593,547.423,726.439,562.827,749.631,562.827 Z M749.631,545.693 C736.997,545.693,730.593,537.385,730.593,522.154 L730.593,477.846 C730.593,462.615,736.997,454.307,749.631,454.307 C762.093,454.307,768.67,462.615,768.67,477.846 L768.67,522.154 C768.67,537.385,762.093,545.693,749.631,545.693 Z M863.69,560.577 L883.075,560.577 L856.767,514.192 C870.613,509.173,878.575,496.192,878.575,477.327 C878.575,453.269,865.421,439.423,842.228,439.423 L810.901,439.423 L810.901,560.577 L828.382,560.577 L828.382,516.616 L839.286,516.616 Z M828.382,456.038 L842.055,456.038 C854.17,456.038,860.574,463.307,860.574,477.673 C860.574,492.038,854.17,500,841.882,500 L828.382,500 Z M901.594,560.577 L931.883,560.577 C955.248,560.577,969.094,546.558,969.094,522.5 L969.094,477.154 C969.094,453.269,955.248,439.423,931.709,439.423 L901.594,439.423 Z M919.075,543.962 L919.075,456.038 L931.883,456.038 C944.517,456.038,951.44,463.307,951.44,477.5 L951.44,522.154 C951.44,536.519,944.344,543.962,931.883,543.962 Z"></path>
		<mask id="mask-1" x="22.064" y="402.746" width="968.437" height="194.508" maskUnits="userSpaceOnUse" stroke-width="0">
			<rect x="30.906" y="411.587" width="950.754" height="176.825" fill="#000"></rect>
			<use xlink:href="#def-1" fill="#fff" stroke="#fff"></use>
			<use xlink:href="#def-2" fill="#fff" stroke="#fff"></use>
		</mask>
	</defs>
	<g mask="url(#mask-1)">
		<rect x="30.906" y="411.587" width="950.754" height="176.825" fill="#42f2ff"></rect>
	</g>
</svg>
